<mxfile host="65bd71144e">
    <diagram id="c5kGJ9HmkNcbFTKQnP6M" name="Brainstorming">
        <mxGraphModel dx="762" dy="790" grid="1" gridSize="10" guides="1" tooltips="1" connect="1" arrows="1" fold="1" page="1" pageScale="1" pageWidth="850" pageHeight="1100" math="0" shadow="0">
            <root>
                <mxCell id="0"/>
                <mxCell id="1" parent="0"/>
                <mxCell id="2" value="Graphana?" style="rounded=0;whiteSpace=wrap;html=1;" parent="1" vertex="1">
                    <mxGeometry x="320" y="100" width="120" height="100" as="geometry"/>
                </mxCell>
                <mxCell id="3" value="Golang" style="rounded=0;whiteSpace=wrap;html=1;" parent="1" vertex="1">
                    <mxGeometry x="320" y="280" width="120" height="100" as="geometry"/>
                </mxCell>
                <mxCell id="4" value="MongoDB" style="rounded=0;whiteSpace=wrap;html=1;" parent="1" vertex="1">
                    <mxGeometry x="320" y="460" width="120" height="100" as="geometry"/>
                </mxCell>
                <mxCell id="8" value="" style="endArrow=classic;startArrow=classic;html=1;entryX=0.5;entryY=1;entryDx=0;entryDy=0;exitX=0.5;exitY=0;exitDx=0;exitDy=0;" parent="1" source="3" target="2" edge="1">
                    <mxGeometry width="50" height="50" relative="1" as="geometry">
                        <mxPoint x="400" y="430" as="sourcePoint"/>
                        <mxPoint x="450" y="380" as="targetPoint"/>
                    </mxGeometry>
                </mxCell>
                <mxCell id="9" value="" style="endArrow=classic;startArrow=classic;html=1;entryX=0.5;entryY=1;entryDx=0;entryDy=0;exitX=0.5;exitY=0;exitDx=0;exitDy=0;" parent="1" source="4" target="3" edge="1">
                    <mxGeometry width="50" height="50" relative="1" as="geometry">
                        <mxPoint x="500" y="480" as="sourcePoint"/>
                        <mxPoint x="500" y="400" as="targetPoint"/>
                    </mxGeometry>
                </mxCell>
                <mxCell id="10" value="&lt;font style=&quot;font-size: 24px&quot;&gt;Mongo DB:&amp;nbsp;&lt;br&gt;&lt;/font&gt;&lt;br&gt;INSTALL&lt;br&gt;https://docs.mongodb.com/guides/server/install/&lt;br&gt;&lt;br&gt;IMPORT DATA&amp;nbsp;&lt;br&gt;https://docs.mongodb.com/guides/server/import/&lt;br&gt;&lt;br&gt;C R U D&amp;nbsp;&lt;br&gt;https://docs.mongodb.com/guides/server/insert/&lt;br&gt;https://docs.mongodb.com/guides/server/read/&lt;br&gt;https://docs.mongodb.com/guides/server/update/&lt;br&gt;https://docs.mongodb.com/guides/server/delete/&lt;br&gt;&lt;br&gt;" style="rounded=0;whiteSpace=wrap;html=1;align=left;verticalAlign=top;" parent="1" vertex="1">
                    <mxGeometry y="100" width="270" height="280" as="geometry"/>
                </mxCell>
                <mxCell id="12" value="&lt;font style=&quot;font-size: 24px&quot;&gt;Golang&lt;br&gt;&lt;/font&gt;&lt;br&gt;Mongo DB Stuff&lt;br&gt;&lt;br&gt;&lt;br&gt;Graphana Stuff&amp;nbsp;&lt;br&gt;&lt;span style=&quot;color: rgba(0 , 0 , 0 , 0) ; font-family: monospace ; font-size: 0px&quot;&gt;%3CmxGraphModel%3E%3Croot%3E%3CmxCell%20id%3D%220%22%2F%3E%3CmxCell%20id%3D%221%22%20parent%3D%220%22%2F%3E%3CmxCell%20id%3D%222%22%20value%3D%22%26lt%3Bfont%20style%3D%26quot%3Bcolor%3A%20rgb(240%2C%20240%2C%20240)%3B%20font-family%3A%20helvetica%3B%20font-style%3A%20normal%3B%20font-weight%3A%20400%3B%20letter-spacing%3A%20normal%3B%20text-align%3A%20left%3B%20text-indent%3A%200px%3B%20text-transform%3A%20none%3B%20word-spacing%3A%200px%3B%20background-color%3A%20rgb(42%2C%2042%2C%2042)%3B%20font-size%3A%2024px%3B%26quot%3B%26gt%3BGolang%26amp%3Bnbsp%3B%26lt%3Bbr%26gt%3B%26lt%3B%2Ffont%26gt%3B%26lt%3Bbr%20style%3D%26quot%3Bcolor%3A%20rgb(240%2C%20240%2C%20240)%3B%20font-family%3A%20helvetica%3B%20font-size%3A%2012px%3B%20font-style%3A%20normal%3B%20font-weight%3A%20400%3B%20letter-spacing%3A%20normal%3B%20text-align%3A%20left%3B%20text-indent%3A%200px%3B%20text-transform%3A%20none%3B%20word-spacing%3A%200px%3B%20background-color%3A%20rgb(42%2C%2042%2C%2042)%3B%26quot%3B%26gt%3B%26lt%3Bspan%20style%3D%26quot%3Bcolor%3A%20rgb(240%2C%20240%2C%20240)%3B%20font-family%3A%20helvetica%3B%20font-size%3A%2012px%3B%20font-style%3A%20normal%3B%20font-weight%3A%20400%3B%20letter-spacing%3A%20normal%3B%20text-align%3A%20left%3B%20text-indent%3A%200px%3B%20text-transform%3A%20none%3B%20word-spacing%3A%200px%3B%20background-color%3A%20rgb(42%2C%2042%2C%2042)%3B%20display%3A%20inline%3B%20float%3A%20none%3B%26quot%3B%26gt%3BMongo%20DB%20Stuff%26amp%3Bnbsp%3B%26lt%3B%2Fspan%26gt%3B%26lt%3Bbr%20style%3D%26quot%3Bcolor%3A%20rgb(240%2C%20240%2C%20240)%3B%20font-family%3A%20helvetica%3B%20font-size%3A%2012px%3B%20font-style%3A%20normal%3B%20font-weight%3A%20400%3B%20letter-spacing%3A%20normal%3B%20text-align%3A%20left%3B%20text-indent%3A%200px%3B%20text-transform%3A%20none%3B%20word-spacing%3A%200px%3B%20background-color%3A%20rgb(42%2C%2042%2C%2042)%3B%26quot%3B%26gt%3B%26lt%3Bbr%20style%3D%26quot%3Bcolor%3A%20rgb(240%2C%20240%2C%20240)%3B%20font-family%3A%20helvetica%3B%20font-size%3A%2012px%3B%20font-style%3A%20normal%3B%20font-weight%3A%20400%3B%20letter-spacing%3A%20normal%3B%20text-align%3A%20left%3B%20text-indent%3A%200px%3B%20text-transform%3A%20none%3B%20word-spacing%3A%200px%3B%20background-color%3A%20rgb(42%2C%2042%2C%2042)%3B%26quot%3B%26gt%3B%26lt%3Bspan%20style%3D%26quot%3Bcolor%3A%20rgb(240%2C%20240%2C%20240)%3B%20font-family%3A%20helvetica%3B%20font-size%3A%2012px%3B%20font-style%3A%20normal%3B%20font-weight%3A%20400%3B%20letter-spacing%3A%20normal%3B%20text-align%3A%20left%3B%20text-indent%3A%200px%3B%20text-transform%3A%20none%3B%20word-spacing%3A%200px%3B%20background-color%3A%20rgb(42%2C%2042%2C%2042)%3B%20display%3A%20inline%3B%20float%3A%20none%3B%26quot%3B%26gt%3BGraphana%20Stuff%26amp%3Bnbsp%3B%26lt%3B%2Fspan%26gt%3B%22%20style%3D%22text%3BwhiteSpace%3Dwrap%3Bhtml%3D1%3B%22%20vertex%3D%221%22%20parent%3D%221%22%3E%3CmxGeometry%20x%3D%22590%22%20y%3D%22470%22%20width%3D%22110%22%20height%3D%2290%22%20as%3D%22geometry%22%2F%3E%3C%2FmxCell%3E%3C%2Froot%3E%3C%2FmxGraphModel%3E&lt;/span&gt;" style="rounded=0;whiteSpace=wrap;html=1;align=left;verticalAlign=top;" parent="1" vertex="1">
                    <mxGeometry y="400" width="270" height="280" as="geometry"/>
                </mxCell>
                <mxCell id="13" value="&lt;font style=&quot;font-size: 24px&quot;&gt;Graphana&lt;br&gt;&lt;/font&gt;&lt;br&gt;Graph Stuff&lt;br&gt;&lt;br&gt;Pick Stuff to Graph&amp;nbsp;&lt;span style=&quot;color: rgba(0 , 0 , 0 , 0) ; font-family: monospace ; font-size: 0px&quot;&gt;%3CmxGraphModel%3E%3Croot%3E%3CmxCell%20id%3D%220%22%2F%3E%3CmxCell%20id%3D%221%22%20parent%3D%220%22%2F%3E%3CmxCell%20id%3D%222%22%20value%3D%22%26lt%3Bfont%20style%3D%26quot%3Bcolor%3A%20rgb(240%2C%20240%2C%20240)%3B%20font-family%3A%20helvetica%3B%20font-style%3A%20normal%3B%20font-weight%3A%20400%3B%20letter-spacing%3A%20normal%3B%20text-align%3A%20left%3B%20text-indent%3A%200px%3B%20text-transform%3A%20none%3B%20word-spacing%3A%200px%3B%20background-color%3A%20rgb(42%2C%2042%2C%2042)%3B%20font-size%3A%2024px%3B%26quot%3B%26gt%3BGolang%26amp%3Bnbsp%3B%26lt%3Bbr%26gt%3B%26lt%3B%2Ffont%26gt%3B%26lt%3Bbr%20style%3D%26quot%3Bcolor%3A%20rgb(240%2C%20240%2C%20240)%3B%20font-family%3A%20helvetica%3B%20font-size%3A%2012px%3B%20font-style%3A%20normal%3B%20font-weight%3A%20400%3B%20letter-spacing%3A%20normal%3B%20text-align%3A%20left%3B%20text-indent%3A%200px%3B%20text-transform%3A%20none%3B%20word-spacing%3A%200px%3B%20background-color%3A%20rgb(42%2C%2042%2C%2042)%3B%26quot%3B%26gt%3B%26lt%3Bspan%20style%3D%26quot%3Bcolor%3A%20rgb(240%2C%20240%2C%20240)%3B%20font-family%3A%20helvetica%3B%20font-size%3A%2012px%3B%20font-style%3A%20normal%3B%20font-weight%3A%20400%3B%20letter-spacing%3A%20normal%3B%20text-align%3A%20left%3B%20text-indent%3A%200px%3B%20text-transform%3A%20none%3B%20word-spacing%3A%200px%3B%20background-color%3A%20rgb(42%2C%2042%2C%2042)%3B%20display%3A%20inline%3B%20float%3A%20none%3B%26quot%3B%26gt%3BMongo%20DB%20Stuff%26amp%3Bnbsp%3B%26lt%3B%2Fspan%26gt%3B%26lt%3Bbr%20style%3D%26quot%3Bcolor%3A%20rgb(240%2C%20240%2C%20240)%3B%20font-family%3A%20helvetica%3B%20font-size%3A%2012px%3B%20font-style%3A%20normal%3B%20font-weight%3A%20400%3B%20letter-spacing%3A%20normal%3B%20text-align%3A%20left%3B%20text-indent%3A%200px%3B%20text-transform%3A%20none%3B%20word-spacing%3A%200px%3B%20background-color%3A%20rgb(42%2C%2042%2C%2042)%3B%26quot%3B%26gt%3B%26lt%3Bbr%20style%3D%26quot%3Bcolor%3A%20rgb(240%2C%20240%2C%20240)%3B%20font-family%3A%20helvetica%3B%20font-size%3A%2012px%3B%20font-style%3A%20normal%3B%20font-weight%3A%20400%3B%20letter-spacing%3A%20normal%3B%20text-align%3A%20left%3B%20text-indent%3A%200px%3B%20text-transform%3A%20none%3B%20word-spacing%3A%200px%3B%20background-color%3A%20rgb(42%2C%2042%2C%2042)%3B%26quot%3B%26gt%3B%26lt%3Bspan%20style%3D%26quot%3Bcolor%3A%20rgb(240%2C%20240%2C%20240)%3B%20font-family%3A%20helvetica%3B%20font-size%3A%2012px%3B%20font-style%3A%20normal%3B%20font-weight%3A%20400%3B%20letter-spacing%3A%20normal%3B%20text-align%3A%20left%3B%20text-indent%3A%200px%3B%20text-transform%3A%20none%3B%20word-spacing%3A%200px%3B%20background-color%3A%20rgb(42%2C%2042%2C%2042)%3B%20display%3A%20inline%3B%20float%3A%20none%3B%26quot%3B%26gt%3BGraphana%20Stuff%26amp%3Bnbsp%3B%26lt%3B%2Fspan%26gt%3B%22%20style%3D%22text%3BwhiteSpace%3Dwrap%3Bhtml%3D1%3B%22%20vertex%3D%221%22%20parent%3D%221%22%3E%3CmxGeometry%20x%3D%22590%22%20y%3D%22470%22%20width%3D%22110%22%20height%3D%2290%22%20as%3D%22geometry%22%2F%3E%3C%2FmxCell%3E%3C%2Froot%3E%3C%2FmxGraphModel%3E&lt;/span&gt;" style="rounded=0;whiteSpace=wrap;html=1;align=left;verticalAlign=top;" parent="1" vertex="1">
                    <mxGeometry y="720" width="270" height="280" as="geometry"/>
                </mxCell>
                <mxCell id="14" value="GUI" style="shape=umlLifeline;perimeter=lifelinePerimeter;whiteSpace=wrap;html=1;container=1;collapsible=0;recursiveResize=0;outlineConnect=0;verticalAlign=top;" parent="1" vertex="1">
                    <mxGeometry x="870" y="100" width="100" height="400" as="geometry"/>
                </mxCell>
                <mxCell id="15" value="" style="shape=umlLifeline;participant=umlActor;perimeter=lifelinePerimeter;whiteSpace=wrap;html=1;container=1;collapsible=0;recursiveResize=0;verticalAlign=top;spacingTop=36;outlineConnect=0;" parent="1" vertex="1">
                    <mxGeometry x="735" y="100" width="20" height="420" as="geometry"/>
                </mxCell>
                <mxCell id="16" value="" style="html=1;points=[];perimeter=orthogonalPerimeter;verticalAlign=top;" parent="1" vertex="1">
                    <mxGeometry x="500" y="20" width="10" height="710" as="geometry"/>
                </mxCell>
                <mxCell id="17" value="Middleware" style="shape=umlLifeline;perimeter=lifelinePerimeter;whiteSpace=wrap;html=1;container=1;collapsible=0;recursiveResize=0;outlineConnect=0;verticalAlign=top;" parent="1" vertex="1">
                    <mxGeometry x="1090" y="100" width="100" height="300" as="geometry"/>
                </mxCell>
                <mxCell id="18" value="Who fucking cares&lt;br&gt;" style="shape=umlLifeline;perimeter=lifelinePerimeter;whiteSpace=wrap;html=1;container=1;collapsible=0;recursiveResize=0;outlineConnect=0;verticalAlign=top;" parent="1" vertex="1">
                    <mxGeometry x="1320" y="100" width="100" height="300" as="geometry"/>
                </mxCell>
                <mxCell id="19" value="" style="html=1;points=[];perimeter=orthogonalPerimeter;verticalAlign=top;" parent="1" vertex="1">
                    <mxGeometry x="915" y="170" width="10" height="60" as="geometry"/>
                </mxCell>
                <mxCell id="20" value="return" style="html=1;verticalAlign=bottom;endArrow=open;dashed=1;endSize=8;" parent="1" source="14" target="15" edge="1">
                    <mxGeometry relative="1" as="geometry">
                        <mxPoint x="915" y="290" as="sourcePoint"/>
                        <mxPoint x="790" y="291" as="targetPoint"/>
                        <Array as="points">
                            <mxPoint x="850" y="470"/>
                            <mxPoint x="800" y="470"/>
                        </Array>
                    </mxGeometry>
                </mxCell>
                <mxCell id="21" value="Get top 100&amp;nbsp;" style="html=1;verticalAlign=top;" parent="1" vertex="1">
                    <mxGeometry x="625" y="30" width="110" height="30" as="geometry"/>
                </mxCell>
                <mxCell id="22" value="gimme top 100 dividends" style="html=1;verticalAlign=bottom;endArrow=block;" parent="1" edge="1">
                    <mxGeometry width="80" relative="1" as="geometry">
                        <mxPoint x="750" y="170" as="sourcePoint"/>
                        <mxPoint x="910" y="170" as="targetPoint"/>
                    </mxGeometry>
                </mxCell>
                <mxCell id="23" value="aight chief where them dividends" style="html=1;verticalAlign=bottom;endArrow=block;" parent="1" target="17" edge="1">
                    <mxGeometry width="80" relative="1" as="geometry">
                        <mxPoint x="915" y="230" as="sourcePoint"/>
                        <mxPoint x="1075" y="230" as="targetPoint"/>
                    </mxGeometry>
                </mxCell>
                <mxCell id="24" value="find top 100 dividends" style="html=1;verticalAlign=bottom;endArrow=block;" parent="1" target="18" edge="1">
                    <mxGeometry width="80" relative="1" as="geometry">
                        <mxPoint x="1145" y="290" as="sourcePoint"/>
                        <mxPoint x="1369.5" y="290" as="targetPoint"/>
                    </mxGeometry>
                </mxCell>
                <mxCell id="25" value="" style="html=1;points=[];perimeter=orthogonalPerimeter;verticalAlign=top;" parent="1" vertex="1">
                    <mxGeometry x="1135" y="230" width="10" height="60" as="geometry"/>
                </mxCell>
                <mxCell id="26" value="oh god oh fuck" style="html=1;points=[];perimeter=orthogonalPerimeter;verticalAlign=top;" parent="1" vertex="1">
                    <mxGeometry x="1365" y="290" width="10" height="60" as="geometry"/>
                </mxCell>
                <mxCell id="27" value="&lt;div style=&quot;box-sizing: border-box; width: 100%; background-image: initial; background-position: initial; background-size: initial; background-repeat: initial; background-attachment: initial; background-origin: initial; background-clip: initial; padding: 2px;&quot;&gt;Tablename&lt;/div&gt;&lt;table style=&quot;width:100%;font-size:1em;&quot; cellpadding=&quot;2&quot; cellspacing=&quot;0&quot;&gt;&lt;tbody&gt;&lt;tr&gt;&lt;td&gt;PK&lt;/td&gt;&lt;td&gt;uniqueId&lt;/td&gt;&lt;/tr&gt;&lt;tr&gt;&lt;td&gt;FK1&lt;/td&gt;&lt;td&gt;foreignKey&lt;/td&gt;&lt;/tr&gt;&lt;tr&gt;&lt;td&gt;&lt;/td&gt;&lt;td&gt;fieldname&lt;/td&gt;&lt;/tr&gt;&lt;/tbody&gt;&lt;/table&gt;" style="verticalAlign=top;align=left;overflow=fill;html=1;rounded=0;labelBackgroundColor=none;labelBorderColor=none;" parent="1" vertex="1">
                    <mxGeometry x="980" y="420" width="180" height="90" as="geometry"/>
                </mxCell>
                <mxCell id="29" value="&lt;div style=&quot;box-sizing: border-box ; width: 100% ; padding: 2px&quot;&gt;Dividends&lt;/div&gt;&lt;table style=&quot;width: 100% ; font-size: 1em&quot; cellpadding=&quot;2&quot; cellspacing=&quot;0&quot;&gt;&lt;tbody&gt;&lt;tr&gt;&lt;td&gt;PK&lt;/td&gt;&lt;td&gt;uniqueId&lt;/td&gt;&lt;/tr&gt;&lt;tr&gt;&lt;td&gt;FK1&lt;/td&gt;&lt;td&gt;foreignKey&lt;/td&gt;&lt;/tr&gt;&lt;tr&gt;&lt;td&gt;date&lt;/td&gt;&lt;td&gt;CIK&lt;br&gt;date&lt;br&gt;start&lt;/td&gt;&lt;/tr&gt;&lt;/tbody&gt;&lt;/table&gt;" style="verticalAlign=top;align=left;overflow=fill;html=1;rounded=0;labelBackgroundColor=none;labelBorderColor=none;" parent="1" vertex="1">
                    <mxGeometry x="1060" y="570" width="240" height="280" as="geometry"/>
                </mxCell>
                <mxCell id="30" value="&lt;div style=&quot;box-sizing: border-box; width: 100%; background-image: initial; background-position: initial; background-size: initial; background-repeat: initial; background-attachment: initial; background-origin: initial; background-clip: initial; padding: 2px;&quot;&gt;Tablename&lt;/div&gt;&lt;table style=&quot;width:100%;font-size:1em;&quot; cellpadding=&quot;2&quot; cellspacing=&quot;0&quot;&gt;&lt;tbody&gt;&lt;tr&gt;&lt;td&gt;PK&lt;/td&gt;&lt;td&gt;uniqueId&lt;/td&gt;&lt;/tr&gt;&lt;tr&gt;&lt;td&gt;FK1&lt;/td&gt;&lt;td&gt;foreignKey&lt;/td&gt;&lt;/tr&gt;&lt;tr&gt;&lt;td&gt;&lt;/td&gt;&lt;td&gt;fieldname&lt;/td&gt;&lt;/tr&gt;&lt;/tbody&gt;&lt;/table&gt;" style="verticalAlign=top;align=left;overflow=fill;html=1;rounded=0;labelBackgroundColor=none;labelBorderColor=none;" parent="1" vertex="1">
                    <mxGeometry x="1375" y="700" width="180" height="90" as="geometry"/>
                </mxCell>
            </root>
        </mxGraphModel>
    </diagram>
</mxfile>